FFmpeg version SVN-r25716, Copyright (c) 2000-2010 the FFmpeg developers  built on Nov 10 2010 12:23:18 with gcc 4.1.2 20080704 (Red Hat 4.1.2-48)  configuration: --enable-libmp3lame --enable-shared --disable-mmx --arch=x86_64  libavutil     50.33. 0 / 50.33. 0  libavcore      0.12. 1 /  0.12. 1  libavcodec    52.94. 4 / 52.94. 4  libavformat   52.84. 0 / 52.84. 0  libavdevice   52. 2. 2 / 52. 2. 2  libavfilter    1.59. 0 /  1.59. 0  libswscale     0.12. 0 /  0.12. 0Input #0, avi, from '/RAID10/data/converted_video_files/47657.avi':  Duration: 00:00:10.30, start: 0.000000, bitrate: 186748 kb/s    Stream #0.0: Video: msvideo1, rgb555le, 1024x1024, 20 tbr, 20 tbn, 20 tbc[buffer @ 0xdbb510] w:1024 h:1024 pixfmt:rgb555le[ffsink @ 0xdd8de0] auto-inserting filter 'auto-inserted scaler 0' between the filter 'src' and the filter 'out'[scale @ 0xdd9100] w:1024 h:1024 fmt:rgb555le -> w:1024 h:1024 fmt:yuv420p flags:0x4Output #0, flv, to '/RAID10/data/converted_video_files/47657.flv':  Metadata:    encoder         : Lavf52.84.0    Stream #0.0: Video: flv, yuv420p, 1024x1024, q=2-31, 600 kb/s, 1k tbn, 24 tbcStream mapping:  Stream #0.0 -> #0.0Press [q] to stop encodingframe=    7 fps=  0 q=11.5 size=     876kB time=0.33 bitrate=21474.0kbits/s    frame=   13 fps=  9 q=25.6 size=    1001kB time=0.62 bitrate=13115.6kbits/s    frame=   18 fps= 10 q=31.0 size=    1034kB time=0.88 bitrate=9677.2kbits/s    frame=   28 fps= 12 q=31.0 size=    1110kB time=1.38 bitrate=6611.1kbits/s    frame=   38 fps= 14 q=31.0 size=    1195kB time=1.87 bitrate=5225.1kbits/s    frame=   46 fps= 13 q=31.0 size=    1254kB time=2.29 bitrate=4480.8kbits/s    frame=   56 fps= 14 q=31.0 size=    1318kB time=2.79 bitrate=3869.1kbits/s    frame=   64 fps= 14 q=31.0 size=    1350kB time=3.21 bitrate=3445.7kbits/s    frame=   74 fps= 15 q=31.0 size=    1412kB time=3.71 bitrate=3120.5kbits/s    frame=   84 fps= 15 q=31.0 size=    1475kB time=4.21 bitrate=2870.2kbits/s    frame=   93 fps= 15 q=31.0 size=    1535kB time=4.62 bitrate=2719.6kbits/s    frame=   97 fps= 15 q=31.0 size=    1552kB time=4.83 bitrate=2629.8kbits/s    frame=  106 fps= 15 q=31.0 size=    1609kB time=5.29 bitrate=2490.8kbits/s    frame=  116 fps= 15 q=31.0 size=    1669kB time=5.79 bitrate=2360.6kbits/s    frame=  126 fps= 15 q=31.0 size=    1707kB time=6.29 bitrate=2221.9kbits/s    frame=  137 fps= 16 q=31.0 size=    1773kB time=6.83 bitrate=2125.2kbits/s    frame=  147 fps= 16 q=31.0 size=    1833kB time=7.33 bitrate=2047.4kbits/s    frame=  156 fps= 16 q=31.0 size=    1892kB time=7.79 bitrate=1989.4kbits/s    frame=  166 fps= 16 q=31.0 size=    1954kB time=8.29 bitrate=1930.6kbits/s    frame=  177 fps= 16 q=31.0 size=    2020kB time=8.83 bitrate=1873.2kbits/s    frame=  186 fps= 16 q=31.0 size=    2052kB time=9.29 bitrate=1809.1kbits/s    frame=  196 fps= 16 q=31.0 size=    2113kB time=9.79 bitrate=1767.7kbits/s    frame=  206 fps= 17 q=31.0 size=    2176kB time=10.29 bitrate=1732.4kbits/s    frame=  206 fps= 17 q=31.0 Lsize=    2176kB time=10.29 bitrate=1732.4kbits/s    video:2173kB audio:0kB global headers:0kB muxing overhead 0.157570%